<svg width="17" height="17" viewBox="0 0 17 17" fill="none" xmlns="http://www.w3.org/2000/svg">
<path d="M12.1498 10.5874H11.3819L11.1098 10.3309C12.0623 9.2477 12.6358 7.84148 12.6358 6.31173C12.6358 2.90069 9.80732 0.135742 6.3179 0.135742C2.82847 0.135742 0 2.90069 0 6.31173C0 9.72278 2.82847 12.4877 6.3179 12.4877C7.88279 12.4877 9.32133 11.9271 10.4294 10.996L10.6918 11.262V12.0126L15.5517 16.7539L17 15.3382L12.1498 10.5874ZM6.3179 10.5874C3.89766 10.5874 1.94397 8.67761 1.94397 6.31173C1.94397 3.94585 3.89766 2.03605 6.3179 2.03605C8.73814 2.03605 10.6918 3.94585 10.6918 6.31173C10.6918 8.67761 8.73814 10.5874 6.3179 10.5874Z" fill="#D1E5F3"/>
</svg>
